<?xml version="1.0" standalone="yes"?>
<svg xmlns="http://www.w3.org/2000/svg" width="110" height="118">
<path style="fill:#000000; stroke:none;" d="M0 0L0 118L110 118L110 0L0 0z"/>
<path style="fill:#1740ad; stroke:none;" d="M44 33C45.9737 36.761 48.7005 38.0169 52.9992 37.9653C57.5774 37.9103 60.8292 34.9185 56 32C56.4721 33.4162 56.8137 33.8137 58 35L48 35C48.6836 33.42 48.8048 33.2228 50 32C47.5379 31.3032 46.3346 31.8896 44 33z"/>
<path style="fill:#3d66c1; stroke:none;" d="M51 35C51.3874 32.0358 53.2057 32.1539 56 32C52.2569 29.8434 45.0309 33.745 51 35z"/>
<path style="fill:#57ace4; stroke:none;" d="M50 33C52.5599 34.9418 54.8078 34.965 58 35C55.3819 32.3326 53.5945 32.0477 50 33z"/>
<path style="fill:#141e73; stroke:none;" d="M43 34C40.98 41.35 44.2286 47.7698 51 51C50.3161 48.791 49.9201 48.2966 48 47C49.3395 44.7861 49.7164 41.1027 52.0556 39.7222C55.3646 37.7693 59.0096 40.6218 60 36C53.2929 38.842 49.0811 37.6064 43 34z"/>
<path style="fill:#000d04; stroke:none;" d="M50 40L51 41L50 40z"/>
<path style="fill:#ff3f04; stroke:none;" d="M51 40C53.8897 41.2129 56.8741 40.9983 60 41C57.1103 39.7871 54.1259 40.0017 51 40z"/>
<path style="fill:#467bf2; stroke:none;" d="M40 41L41 42L40 41z"/>
<path style="fill:#467ae4; stroke:none;" d="M42 41L43 42L42 41z"/>
<path style="fill:#180e28; stroke:none;" d="M44 41L44 44C44.6961 42.4463 44.6961 42.5537 44 41z"/>
<path style="fill:#030d00; stroke:none;" d="M49.3333 41.6667C49.2778 41.7222 49.2222 42.7778 49.6667 42.3333C49.7222 42.2778 49.7778 41.2222 49.3333 41.6667z"/>
<path style="fill:#ef0f0d; stroke:none;" d="M50 41L51 42L50 41z"/>
<path style="fill:#000f0c; stroke:none;" d="M51 41C51.9802 42.7833 51.9076 42.5943 54 43C52.8607 41.9846 52.3884 41.6913 51 41z"/>
<path style="fill:#000c43; stroke:none;" d="M52.6667 41.3333C52.2222 41.7778 53.2778 41.7222 53.3333 41.6667C53.7778 41.2222 52.7222 41.2778 52.6667 41.3333z"/>
<path style="fill:#c60c12; stroke:none;" d="M54 41C55.506 41.683 56.3148 41.8259 58 42C56.494 41.317 55.6852 41.1741 54 41z"/>
<path style="fill:#000f0e; stroke:none;" d="M58 41L58 43L60 43L60 41L58 41z"/>
<path style="fill:#f31112; stroke:none;" d="M60 41L61 42L60 41z"/>
<path style="fill:#194dd1; stroke:none;" d="M40.3333 42.6667C40.2778 42.7222 40.2222 43.7778 40.6667 43.3333C40.7223 43.2777 40.7778 42.2222 40.3333 42.6667z"/>
<path style="fill:#184ac2; stroke:none;" d="M42.3333 42.6667C42.2778 42.7222 42.2222 43.7778 42.6667 43.3333C42.7222 43.2778 42.7778 42.2222 42.3333 42.6667z"/>
<path style="fill:#991714; stroke:none;" d="M50 42L51 43L50 42z"/>
<path style="fill:#781717; stroke:none;" d="M54 42C55.506 42.683 56.3148 42.8259 58 43C56.494 42.317 55.6852 42.1741 54 42z"/>
<path style="fill:#9e1a18; stroke:none;" d="M60 42L61 43L60 42z"/>
<path style="fill:#060c01; stroke:none;" d="M50 43L51 44L50 43z"/>
<path style="fill:#951717; stroke:none;" d="M51 43C53.8897 44.2129 56.8741 43.9983 60 44C57.1103 42.7871 54.1259 43.0017 51 43z"/>
<path style="fill:#0d1313; stroke:none;" d="M31 44C32.769 44.7789 34.0359 44.9124 36 45C34.231 44.2211 32.9641 44.0876 31 44z"/>
<path style="fill:#194cce; stroke:none;" d="M41 44L42 45L41 44z"/>
<path style="fill:#141e7e; stroke:none;" d="M42 44L43 45L42 44z"/>
<path style="fill:#181034; stroke:none;" d="M43 44C42.6896 49.3073 46.1245 51.2191 51 52L43 44z"/>
<path style="fill:#1645b9; stroke:none;" d="M50 44C48.8137 45.1863 48.4721 45.5838 48 47L54 47C52.6589 45.7259 51.5969 44.9593 50 44z"/>
<path style="fill:#8b1818; stroke:none;" d="M31 45L32 46L31 45z"/>
<path style="fill:#dc0f0f; stroke:none;" d="M32 45L31 47L33 47C33 45.1468 33.2997 45.6498 32 45z"/>
<path style="fill:#291c1d; stroke:none;" d="M32 48C33.9225 47.0985 33.9988 46.9238 35 45C33.0775 45.9015 33.0012 46.0761 32 48z"/>
<path style="fill:#991919; stroke:none;" d="M35 45L36 46L35 45z"/>
<path style="fill:#406dd4; stroke:none;" d="M52.6667 45.3333C52.2222 45.7778 53.2778 45.7222 53.3333 45.6667C53.7778 45.2222 52.7222 45.2778 52.6667 45.3333z"/>
<path style="fill:#5ab9f9; stroke:none;" d="M54 45C56.0521 45.8743 57.7472 45.9528 60 46C57.9479 45.1258 56.2528 45.0472 54 45z"/>
<path style="fill:#901919; stroke:none;" d="M30 46L30 49L32 48C31.4549 46.3648 31.6352 46.5451 30 46z"/>
<path style="fill:#781717; stroke:none;" d="M34.3333 46.6667C34.2778 46.7222 34.2222 47.7778 34.6667 47.3333C34.7222 47.2778 34.7778 46.2222 34.3333 46.6667z"/>
<path style="fill:#d61010; stroke:none;" d="M35 46C34.4549 47.6352 34.6352 47.4549 33 48C35.0335 48.7852 35.7852 48.0335 35 46z"/>
<path style="fill:#3b65d0; stroke:none;" d="M54 46C56.3315 46.9845 58.4567 46.9813 61 47C58.6684 46.0155 56.5433 46.0187 54 46z"/>
<path style="fill:#9b1818; stroke:none;" d="M66 46L67 47L66 46z"/>
<path style="fill:#e91410; stroke:none;" d="M67.6667 46.3333C67.2222 46.7778 68.2778 46.7222 68.3333 46.6667C68.7778 46.2222 67.7222 46.2778 67.6667 46.3333z"/>
<path style="fill:#1a0a27; stroke:none;" d="M49.6667 47.3333C49.2222 47.7778 50.2778 47.7222 50.3333 47.6667C50.7778 47.2222 49.7222 47.2778 49.6667 47.3333z"/>
<path style="fill:#271c1d; stroke:none;" d="M66.6667 47.3333C66.2222 47.7778 67.2778 47.7222 67.3333 47.6667C67.7778 47.2222 66.7222 47.2778 66.6667 47.3333z"/>
<path style="fill:#7d1616; stroke:none;" d="M68 47L67 48C68.2228 49.1952 68.42 49.3164 70 50C69.3164 48.42 69.1952 48.2228 68 47z"/>
<path style="fill:#ea1212; stroke:none;" d="M69 47C69.5451 48.6352 69.3649 48.4549 71 49L71 47L69 47z"/>
<path style="fill:#0b1314; stroke:none;" d="M71 47L70 51C71.303 49.3324 71.553 49.0078 71 47z"/>
<path style="fill:#07100f; stroke:none;" d="M31 48C31.0607 50.0505 31.3005 51.0417 32 53L35 51L31 48z"/>
<path style="fill:#8a1714; stroke:none;" d="M32 48C32.9802 49.7833 32.9076 49.5943 35 50C33.8607 48.9846 33.3884 48.6913 32 48z"/>
<path style="fill:#1545c2; stroke:none;" d="M36.6667 48.3333C36.2222 48.7778 37.2778 48.7222 37.3333 48.6667C37.7778 48.2222 36.7222 48.2778 36.6667 48.3333z"/>
<path style="fill:#161236; stroke:none;" d="M51 48C54.3539 49.8649 57.0172 50.6243 60 48L51 48z"/>
<path style="fill:#4270d2; stroke:none;" d="M64 48C63.0143 49.4785 63 49.2032 63 51C64.2892 49.5574 64.4009 49.7663 64 48z"/>
<path style="fill:#ea0e09; stroke:none;" d="M66 48L67 49L66 48z"/>
<path style="fill:#000800; stroke:none;" d="M35 49L36 50L35 49z"/>
<path style="fill:#416dcf; stroke:none;" d="M36 49C37.2228 50.1952 37.42 50.3164 39 51C38.0198 49.2167 38.0924 49.4057 36 49z"/>
<path style="fill:#1447c0; stroke:none;" d="M42.6667 49.3333C42.2222 49.7778 43.2778 49.7222 43.3333 49.6667C43.7778 49.2222 42.7222 49.2778 42.6667 49.3333z"/>
<path style="fill:#1746b8; stroke:none;" d="M51 49L51 51L57 51C54.9584 49.584 53.489 49.2549 51 49z"/>
<path style="fill:#1746b6; stroke:none;" d="M65 49C63.8137 50.1863 63.4721 50.5838 63 52C64.9435 52.4018 65.0565 52.4018 67 52C66.3087 50.6116 66.0154 50.1394 65 49z"/>
<path style="fill:#050700; stroke:none;" d="M66 49L66 51L68 51C67.4549 49.3648 67.6352 49.5451 66 49z"/>
<path style="fill:#e3100f; stroke:none;" d="M67 49L68 50L67 49z"/>
<path style="fill:#141d7a; stroke:none;" d="M35.3333 50.6667C35.2778 50.7222 35.2222 51.7778 35.6667 51.3333C35.7222 51.2778 35.7778 50.2222 35.3333 50.6667z"/>
<path style="fill:#1744b1; stroke:none;" d="M36 50C37.2259 52.0347 37.7026 52.3264 40 53C38.7776 51.267 37.9912 50.8486 36 50z"/>
<path style="fill:#131a7a; stroke:none;" d="M41 50L42 51L41 50z"/>
<path style="fill:#436eca; stroke:none;" d="M42.6667 50.3333C42.2222 50.7778 43.2778 50.7222 43.3333 50.6667C43.7778 50.2222 42.7222 50.2778 42.6667 50.3333z"/>
<path style="fill:#1543b1; stroke:none;" d="M44 50C42.5215 50.9857 42.7968 51 41 51C42.5224 51.8551 44.9447 52.2884 44 50z"/>
<path style="fill:#441e1d; stroke:none;" d="M68.6667 50.3333C68.2222 50.7778 69.2778 50.7222 69.3333 50.6667C69.7778 50.2222 68.7222 50.2778 68.6667 50.3333z"/>
<path style="fill:#181034; stroke:none;" d="M33 51C34.684 54.3452 36.3016 55.4258 40 56C37.7589 54.085 35.6285 52.3183 33 51z"/>
<path style="fill:#141b6f; stroke:none;" d="M41 52C45.5216 54.9699 51.3233 60.7815 56 55L48 56L48 52C45.5911 51.7283 43.4187 51.7992 41 52z"/>
<path style="fill:#0f0f01; stroke:none;" d="M46.6667 51.3333C46.2222 51.7778 47.2778 51.7222 47.3333 51.6667C47.7778 51.2222 46.7222 51.2778 46.6667 51.3333z"/>
<path style="fill:#141c78; stroke:none;" d="M51 51C52.506 51.683 53.3148 51.8259 55 52C53.494 51.317 52.6852 51.1741 51 51z"/>
<path style="fill:#180e32; stroke:none;" d="M55.6667 51.3333C55.2222 51.7778 56.2778 51.7222 56.3333 51.6667C56.7778 51.2222 55.7222 51.2778 55.6667 51.3333z"/>
<path style="fill:#131f7b; stroke:none;" d="M62 51C63.2259 53.0347 63.7026 53.3264 66 54C64.6589 52.7259 63.5969 51.9593 62 51z"/>
<path style="fill:#141f80; stroke:none;" d="M67 51L66 53L68 53C68 51.1468 68.2997 51.6498 67 51z"/>
<path style="fill:#121311; stroke:none;" d="M68 51L68 54C69.1952 52.7772 69.3164 52.58 70 51L68 51z"/>
<path style="fill:#14207c; stroke:none;" d="M36 52C37.2259 54.0347 37.7026 54.3265 40 55C38.7776 53.267 37.9912 52.8486 36 52z"/>
<path style="fill:#0a0500; stroke:none;" d="M48 52C50.8897 53.2129 53.8741 52.9983 57 53C54.1103 51.7871 51.1259 52.0017 48 52z"/>
<path style="fill:#15238c; stroke:none;" d="M57 52L58 53L57 52z"/>
<path style="fill:#181034; stroke:none;" d="M42 53C43.9772 56.8968 48.5403 63.9827 52 58C48.2379 56.9354 45.7115 54.1168 42 53z"/>
<path style="fill:#3d6ed5; stroke:none;" d="M47 53C49.8182 54.6801 51.8415 54.7927 55 54C52.3873 52.9023 49.8355 53.0072 47 53z"/>
<path style="fill:#1547b5; stroke:none;" d="M55 53C54.0143 54.4785 54 54.2032 54 56C55.2892 54.5574 55.4009 54.7663 55 53z"/>
<path style="fill:#141d7c; stroke:none;" d="M56.3333 53.6667C56.2777 53.7223 56.2222 54.7778 56.6667 54.3333C56.7222 54.2778 56.7778 53.2222 56.3333 53.6667z"/>
<path style="fill:#15113f; stroke:none;" d="M57.6667 53.3333C57.2222 53.7778 58.2778 53.7222 58.3333 53.6667C58.7778 53.2222 57.7222 53.2778 57.6667 53.3333z"/>
<path style="fill:#11120d; stroke:none;" d="M59 53L60 57L66 57L59 53z"/>
<path style="fill:#171133; stroke:none;" d="M61 53C63.1863 56.3235 65.4015 55.6239 68 53C65.5722 53.2619 63.4278 53.2619 61 53z"/>
<path style="fill:#971613; stroke:none;" d="M41 54L42 55L41 54z"/>
<path style="fill:#1643b0; stroke:none;" d="M48 54C48.9802 55.7833 48.9076 55.5943 51 56C49.7772 54.8048 49.58 54.6836 48 54z"/>
<path style="fill:#971515; stroke:none;" d="M59.3333 54.6667C59.2778 54.7222 59.2222 55.7778 59.6667 55.3333C59.7222 55.2778 59.7778 54.2222 59.3333 54.6667z"/>
<path style="fill:#931615; stroke:none;" d="M40 55L41 56L40 55z"/>
<path style="fill:#ee110c; stroke:none;" d="M41 55L42 56L41 55z"/>
<path style="fill:#181033; stroke:none;" d="M56 55C54.457 56.2667 53.9522 56.4892 52 57L54 61C55.7769 58.9496 56.6395 57.6599 56 55z"/>
<path style="fill:#491c1d; stroke:none;" d="M58 55L58 57L60 57C59.4549 55.3648 59.6352 55.5451 58 55z"/>
<path style="fill:#0e1114; stroke:none;" d="M36 56C38.0416 57.416 39.511 57.7451 42 58C39.9868 56.7753 38.3415 56.3547 36 56z"/>
<path style="fill:#411c1d; stroke:none;" d="M39 56C40.2484 56.6848 40.5484 56.7488 42 57C40.7516 56.3152 40.4516 56.2512 39 56z"/>
<path style="fill:#0e0c00; stroke:none;" d="M52.6667 58.3333C52.2222 58.7778 53.2778 58.7222 53.3333 58.6667C53.7778 58.2222 52.7222 58.2778 52.6667 58.3333z"/>
<path style="fill:#0e1005; stroke:none;" d="M48.6667 59.3333C48.2222 59.7778 49.2778 59.7222 49.3333 59.6667C49.7778 59.2222 48.7222 59.2778 48.6667 59.3333z"/>
<path style="fill:#1746b3; stroke:none;" d="M52 59C52.5108 60.9522 52.7333 61.4569 54 63C53.9664 60.6632 53.9023 60.3341 52 59z"/>
<path style="fill:#0c100b; stroke:none;" d="M55 59C54.2325 62.3569 53.3 65.56 53 69C54.9334 65.9229 56.245 62.5096 55 59z"/>
<path style="fill:#141c71; stroke:none;" d="M51 60C50.0143 61.4785 50 61.2032 50 63L54 64C53.0407 62.4031 52.2741 61.3411 51 60z"/>
<path style="fill:#100e04; stroke:none;" d="M47 61L46 66C47.8429 64.547 48.2585 63.2647 49 61L47 61z"/>
<path style="fill:#9e1914; stroke:none;" d="M48 62L49 63L48 62z"/>
<path style="fill:#000000; stroke:none;" d="M49 62C49.5008 64.6858 49.8826 67.2699 50 70C53.94 67.4515 52.0404 64.5758 49 62z"/>
<path style="fill:#eb0a02; stroke:none;" d="M48.3333 63.6667C48.2778 63.7222 48.2222 64.7778 48.6667 64.3333C48.7222 64.2778 48.7778 63.2222 48.3333 63.6667z"/>
<path style="fill:#9e191a; stroke:none;" d="M55 63L56 64L55 63z"/>
<path style="fill:#931108; stroke:none;" d="M49 64L50 65L49 64z"/>
<path style="fill:#1a1136; stroke:none;" d="M51 64C52.2484 64.6848 52.5484 64.7488 54 65C52.7516 64.3152 52.4516 64.2512 51 64z"/>
<path style="fill:#f40c00; stroke:none;" d="M55 64L56 65L55 64z"/>
<path style="fill:#3570e1; stroke:none;" d="M48 65C48.5451 66.6352 48.3648 66.4549 50 67L50 65L48 65z"/>
<path style="fill:#366ad3; stroke:none;" d="M55 65L55 69C56.6704 67.3296 55.6968 66.4242 58 67C57.0198 65.2167 57.0924 65.4057 55 65z"/>
<path style="fill:#141f76; stroke:none;" d="M46 66C45.2348 69.5577 45.4423 71.7086 47 75C49.2489 73.8464 49.8464 73.2489 51 71L48 72C47.4394 69.8976 46.9509 67.9407 46 66z"/>
<path style="fill:#1038ab; stroke:none;" d="M47 66L47 71C47.8299 68.9695 47.8299 68.0305 47 66z"/>
<path style="fill:#59b6f8; stroke:none;" d="M48 66C48.4057 68.0924 48.2167 68.0198 50 69C49.3164 67.42 49.1952 67.2228 48 66z"/>
<path style="fill:#1541af; stroke:none;" d="M54 66L54 71C56.4025 70.832 57.4602 70.8031 59 69L56 70C55.4038 68.4399 54.9114 67.3766 54 66z"/>
<path style="fill:#55ade3; stroke:none;" d="M56 66C56.4057 68.0924 56.2167 68.0198 58 69C57.3164 67.42 57.1952 67.2228 56 66z"/>
<path style="fill:#3e69d2; stroke:none;" d="M58.3333 67.6667C58.2778 67.7222 58.2222 68.7778 58.6667 68.3333C58.7222 68.2778 58.7778 67.2222 58.3333 67.6667z"/>
<path style="fill:#171137; stroke:none;" d="M44 69C43.1489 71.673 42.4103 74.2255 42 77L48 76L44 69z"/>
<path style="fill:#3f6bca; stroke:none;" d="M48 69C48.9802 70.7833 48.9076 70.5943 51 71C49.7772 69.8048 49.58 69.6836 48 69z"/>
<path style="fill:#0f0f08; stroke:none;" d="M52 69L48 76C50.061 77.988 50.5787 79.1571 51 82L53 78L54 79L52 69z"/>
<path style="fill:#171137; stroke:none;" d="M53 69C52.4992 71.6858 52.1174 74.2699 52 77L57 76L53 69z"/>
<path style="fill:#3a63bf; stroke:none;" d="M56.6667 69.3333C56.2222 69.7778 57.2778 69.7222 57.3333 69.6667C57.7778 69.2222 56.7222 69.2778 56.6667 69.3333z"/>
<path style="fill:#1341b1; stroke:none;" d="M48.6667 71.3333C48.2222 71.7778 49.2778 71.7222 49.3333 71.6667C49.7778 71.2222 48.7222 71.2778 48.6667 71.3333z"/>
<path style="fill:#141f78; stroke:none;" d="M54 71C55.1535 73.2489 55.7511 73.8465 58 75L59 71L54 71z"/>
<path style="fill:#1b133f; stroke:none;" d="M59 72L58 75C59.7662 74.0214 59.9554 73.7782 59 72z"/>
<path style="fill:#000e0d; stroke:none;" d="M46.6667 76.3333C46.2222 76.7778 47.2778 76.7222 47.3333 76.6667C47.7778 76.2222 46.7222 76.2778 46.6667 76.3333z"/>
<path style="fill:#df3e06; stroke:none;" d="M48 76C48.4825 78.364 48.636 78.5175 51 79C50.0985 77.0775 49.9238 77.0012 48 76z"/>
<path style="fill:#861519; stroke:none;" d="M49 76L50 77L49 76z"/>
<path style="fill:#000f0c; stroke:none;" d="M55.6667 76.3333C55.2222 76.7778 56.2778 76.7222 56.3333 76.6667C56.7778 76.2222 55.7222 76.2778 55.6667 76.3333z"/>
<path style="fill:#781617; stroke:none;" d="M55 77C56.1034 78.4566 56.5434 78.8966 58 80C58.6836 78.42 58.8048 78.2228 60 77C58.0567 76.3782 57.051 76.5642 55 77z"/>
<path style="fill:#3d1d1c; stroke:none;" d="M45 77C45.4091 79.5089 45.7293 79.7754 48 81C47.0407 79.4031 46.2741 78.3411 45 77z"/>
<path style="fill:#7c1517; stroke:none;" d="M46 77C47.1841 79.8585 48.0518 81.0316 51 82C49.6937 79.5632 48.4368 78.3063 46 77z"/>
<path style="fill:#421d1d; stroke:none;" d="M54 77C54.9683 79.9641 55.9339 80.5029 59 81C57.412 79.3733 55.9219 78.2261 54 77z"/>
<path style="fill:#f74105; stroke:none;" d="M58 77L59 81C59.7511 78.9535 59.6556 78.4043 58 77z"/>
<path style="fill:#cf0d11; stroke:none;" d="M58.3333 78.6667C58.2778 78.7222 58.2222 79.7778 58.6667 79.3333C58.7222 79.2778 58.7778 78.2222 58.3333 78.6667z"/>
<path style="fill:#db0e11; stroke:none;" d="M49.6667 79.3333C49.2222 79.7778 50.2778 79.7222 50.3333 79.6667C50.7778 79.2222 49.7222 79.2778 49.6667 79.3333z"/>
</svg>
